HIERARCHY
ROOT Hips
{
  OFFSET 53.0888 96.0635 10.5437
  CHANNELS 6 Xposition Yposition Zposition Zrotation Xrotation Yrotation
  JOINT spine
  {
    OFFSET 0 8.13249 0.467659
    CHANNELS 3 Zrotation Xrotation Yrotation
    JOINT spine1
    {
      OFFSET 0 10.3498 0
      CHANNELS 3 Zrotation Xrotation Yrotation
      JOINT spine2
      {
        OFFSET 0 9.91699 0
        CHANNELS 3 Zrotation Xrotation Yrotation
        JOINT Neck
        {
          OFFSET 0 25.461 1.2139
          CHANNELS 3 Zrotation Xrotation Yrotation
          JOINT Head
          {
            OFFSET 0 7.69245 0
            CHANNELS 3 Zrotation Xrotation Yrotation
            End Site
            {
              OFFSET 0 18.62 -6.14063
            }
          }
        }
        JOINT RightShoulder
        {
          OFFSET -4.17575 10.7096 -0.581445
          CHANNELS 3 Zrotation Xrotation Yrotation
          JOINT RightArm
          {
            OFFSET 0 14.0466 0
            CHANNELS 3 Zrotation Xrotation Yrotation
            JOINT RightArmRoll
            {
              OFFSET 0 7.09099 0
              CHANNELS 3 Zrotation Xrotation Yrotation
              JOINT RightForeArm
              {
                OFFSET 0 20.6535 0
                CHANNELS 3 Zrotation Xrotation Yrotation
                JOINT RightForeArmRoll
                {
                  OFFSET 0 7.95718 0
                  CHANNELS 3 Zrotation Xrotation Yrotation
                  JOINT RightHand
                  {
                    OFFSET 0 15.9683 0
                    CHANNELS 3 Zrotation Xrotation Yrotation
                    End Site
                    {
                      OFFSET 0 0 0
                    }
                  }
                }
              }
            }
          }
        }
        JOINT LeftShoulder
        {
          OFFSET 4.17575 10.7096 -0.581445
          CHANNELS 3 Zrotation Xrotation Yrotation
          JOINT LeftArm
          {
            OFFSET 0 14.0466 0
            CHANNELS 3 Zrotation Xrotation Yrotation
            JOINT LeftArmRoll
            {
              OFFSET 0 7.09099 0
              CHANNELS 3 Zrotation Xrotation Yrotation
              JOINT LeftForeArm
              {
                OFFSET 0 20.6535 0
                CHANNELS 3 Zrotation Xrotation Yrotation
                JOINT LeftForeArmRoll
                {
                  OFFSET 0 7.95718 0
                  CHANNELS 3 Zrotation Xrotation Yrotation
                  JOINT LeftHand
                  {
                    OFFSET 0 15.9683 0
                    CHANNELS 3 Zrotation Xrotation Yrotation
                    End Site
                    {
                      OFFSET 0 0 0
                    }
                  }
                }
              }
            }
          }
        }
      }
    }
  }
  JOINT RightUpLeg
  {
    OFFSET -7.20834 -1.32182 -1.10884
    CHANNELS 3 Zrotation Xrotation Yrotation
    JOINT RightUpLegRoll
    {
      OFFSET 0 18.7238 0
      CHANNELS 3 Zrotation Xrotation Yrotation
      JOINT RightLeg
      {
        OFFSET 0 -23.1866 0
        CHANNELS 3 Zrotation Xrotation Yrotation
        JOINT RightLegRoll
        {
          OFFSET 0 23.2624 0
          CHANNELS 3 Zrotation Xrotation Yrotation
          JOINT RightFoot
          {
            OFFSET 0 19.3621 0
            CHANNELS 3 Zrotation Xrotation Yrotation
            JOINT RightToeBase
            {
              OFFSET 0 16.1857 0
              CHANNELS 3 Zrotation Xrotation Yrotation
              End Site
              {
                OFFSET 0.00686052 7.83862 -0.903522
              }
            }
          }
        }
      }
    }
  }
  JOINT LeftUpLeg
  {
    OFFSET 7.20834 -1.32182 -1.10884
    CHANNELS 3 Zrotation Xrotation Yrotation
    JOINT LeftUpLegRoll
    {
      OFFSET 0 18.7239 0
      CHANNELS 3 Zrotation Xrotation Yrotation
      JOINT LeftLeg
      {
        OFFSET 0 23.1865 0
        CHANNELS 3 Zrotation Xrotation Yrotation
        JOINT LeftLegRoll
        {
          OFFSET 0 23.4775 0
          CHANNELS 3 Zrotation Xrotation Yrotation
          JOINT LeftFoot
          {
            OFFSET 0 19.147 0
            CHANNELS 3 Zrotation Xrotation Yrotation
            JOINT LeftToeBase
            {
              OFFSET 0 16.1857 0
              CHANNELS 3 Zrotation Xrotation Yrotation
              End Site
              {
                OFFSET -0.0307459 7.83863 -0.903522
              }
            }
          }
        }
      }
    }
  }
}
MOTION
Frames: 4
Frame Time: 0.00208333
53.0159 96.0591 9.5677 -0.0182012 -4.59795 1.90141 0.348359 -1.77268 0.104856 0.698856 0.457894 0.175414 0.697077 2.10289 0.163779 -5.19389 11.9896 -2.50587 -0.417273 -0.98259 -3.91875 58.2833 -8.87443 -5.50311 120.306 31.7736 -56.6413 1.43821e-006 -1.92971e-007 -7.84381e-006 -162.145 74.2989 146.925 1.51365e-006 -1.49271e-006 -3 8.02914 -4.95144 0.697675 -63.266 -4.76134 3.24217 -121.404 41.38 44.0124 -4.4748e-009 -8.62477e-007 3.50159e-006 113.94 85.5035 -106.641 -2.09904e-005 5.73805e-006 3 -8.0289 -4.95144 -0.697668 172.54 0.455807 4.09458 180 7.01574e-015 179.047 178.467 11.5595 179.62 -5.44318e-007 -6.69345e-007 0.0202722 -17.1445 69.242 20.5046 8.13658 25.234 -3.48592 -173.396 -0.460351 -1.92154 4.5067e-006 -1.99009e-005 -0.962296 -1.50168 -12.3834 0.409321 1.24097e-006 -7.34254e-006 -0.123658 19.1338 71.208 -22.4022 -8.13661 25.2345 3.48532 
53.0104 96.0585 9.56784 -0.0187111 -4.58897 1.89974 0.348794 -1.7762 0.104768 0.69921 0.450863 0.175023 0.697437 2.09585 0.163379 -5.19047 12.0611 -2.49854 -0.401353 -1.07835 -3.91206 58.2918 -8.87069 -5.50087 120.175 31.7799 -56.5087 1.43821e-006 -1.92971e-007 -7.84381e-006 -162.168 74.2751 146.94 1.51365e-006 -1.49271e-006 -3 8.02914 -4.95144 0.697675 -63.2672 -4.74625 3.23368 -121.23 41.2863 43.9655 -4.47477e-009 -8.62477e-007 3.50159e-006 114.41 85.4622 -107.082 -2.09904e-005 5.73805e-006 3 -8.0289 -4.95144 -0.697668 172.54 0.466386 4.09386 180 7.01574e-015 179.047 178.467 11.5626 179.62 -5.44318e-007 -6.69345e-007 0.0203506 -17.1463 69.2437 20.5058 8.13658 25.234 -3.48592 -173.395 -0.451376 -1.92122 4.5067e-006 -1.99009e-005 -0.962277 -1.5023 -12.3846 0.409365 1.24097e-006 -7.34254e-006 -0.123658 19.1347 71.2092 -22.4033 -8.13661 25.2345 3.48532 
53.0126 96.0585 9.56436 -0.0190127 -4.58135 1.8976 0.349152 -1.77888 0.10472 0.699495 0.44548 0.174486 0.697731 2.09047 0.162835 -5.18753 12.1116 -2.49224 -0.386214 -1.14811 -3.90567 58.2938 -8.86819 -5.49932 120.048 31.7818 -56.376 1.43821e-006 -1.92971e-007 -7.84381e-006 -162.196 74.2424 146.953 1.51365e-006 -1.49271e-006 -3 8.02914 -4.95144 0.697675 -63.2665 -4.73533 3.22743 -121.068 41.1923 43.9343 -4.4748e-009 -8.62477e-007 3.50159e-006 114.856 85.4184 -107.497 -2.09904e-005 5.73805e-006 3 -8.0289 -4.95144 -0.697668 172.54 0.47367 4.09265 180 7.01574e-015 179.047 178.468 11.5611 179.62 -5.44318e-007 -6.69345e-007 0.0203656 -17.1454 69.2427 20.5053 8.13658 25.234 -3.48592 -173.396 -0.445401 -1.92075 4.5067e-006 -1.99009e-005 -0.962258 -1.50289 -12.3828 0.409348 1.24097e-006 -7.34254e-006 -0.123658 19.1355 71.2091 -22.4034 -8.13661 25.2345 3.48532 
53.0148 96.0598 9.56759 -0.019209 -4.57473 1.89489 0.349462 -1.78097 0.104692 0.699689 0.441271 0.173759 0.697937 2.08626 0.162106 -5.18509 12.1461 -2.48638 -0.37131 -1.19663 -3.89914 58.2907 -8.86593 -5.49783 119.924 31.7827 -56.2433 1.43821e-006 -1.92971e-007 -7.84381e-006 -162.23 74.203 146.968 1.51365e-006 -1.49271e-006 -3 8.02914 -4.95144 0.697675 -63.2635 -4.72763 3.22287 -120.916 41.0948 43.9225 -4.47479e-009 -8.62477e-007 3.50159e-006 115.278 85.3716 -107.886 -2.09904e-005 5.73805e-006 3 -8.0289 -4.95144 -0.697668 172.541 0.478239 4.09085 180 7.01574e-015 179.047 178.469 11.5552 179.619 -5.44318e-007 -6.69345e-007 0.0203393 -17.1422 69.2394 20.503 8.13658 25.234 -3.48592 -173.396 -0.441906 -1.92018 4.5067e-006 -1.99009e-005 -0.96224 -1.50346 -12.3784 0.409292 1.24097e-006 -7.34254e-006 -0.123658 19.1364 71.2079 -22.4028 -8.13661 25.2345 3.48532 
